<svg width="24" height="24" viewBox="0 0 24 24" fill="none" xmlns="http://www.w3.org/2000/svg">
<path d="M5.00002 20C4.57435 20 4.27177 19.8099 4.09227 19.4298C3.91277 19.0496 3.9551 18.6948 4.21927 18.3655L10 11.3463V5H8.61552C8.47386 5 8.3551 4.952 8.25927 4.856C8.16344 4.76 8.11552 4.64108 8.11552 4.49925C8.11552 4.35742 8.16344 4.23875 8.25927 4.14325C8.3551 4.04775 8.47386 4 8.61552 4H15.3845C15.5262 4 15.6449 4.048 15.7408 4.144C15.8366 4.24 15.8845 4.35892 15.8845 4.50075C15.8845 4.64258 15.8366 4.76125 15.7408 4.85675C15.6449 4.95225 15.5262 5 15.3845 5H14V11.3463L19.7808 18.3655C20.0449 18.6948 20.0873 19.0496 19.9078 19.4298C19.7283 19.8099 19.4257 20 19 20H5.00002ZM5.00002 19H19L13 11.7V5H11V11.7L5.00002 19Z" fill="#1D1F3D"/>
</svg>
