<svg width="24" height="24" viewBox="0 0 24 24" fill="none" xmlns="http://www.w3.org/2000/svg">
<path d="M7.8 17C7.091 17 6.40033 16.8724 5.728 16.6173C5.0555 16.3621 4.46217 15.9942 3.948 15.5135C3.27633 14.866 2.78375 14.0875 2.47025 13.178C2.15675 12.2683 2 11.334 2 10.375C2 9.38267 2.23333 8.57208 2.7 7.94325C3.16667 7.31442 3.84808 7 4.74425 7C4.90058 7 5.05733 7.01442 5.2145 7.04325C5.3715 7.07208 5.52625 7.11533 5.67875 7.173L12 9.552L18.3212 7.173C18.4737 7.11533 18.6285 7.07208 18.7855 7.04325C18.9427 7.01442 19.0994 7 19.2558 7C20.1519 7 20.8333 7.31442 21.3 7.94325C21.7667 8.57208 22 9.38267 22 10.375C22 11.334 21.8433 12.2683 21.5298 13.178C21.2162 14.0875 20.7237 14.866 20.052 15.5135C19.5378 15.9942 18.9445 16.3621 18.272 16.6173C17.5997 16.8724 16.909 17 16.2 17C15.2795 17 14.4519 16.75 13.7172 16.25L12.6155 15.5H11.3845L10.2828 16.25C9.54808 16.75 8.7205 17 7.8 17ZM7.8 16C8.41667 16 8.99167 15.8542 9.525 15.5625C10.0583 15.2708 10.55 14.9167 11 14.5H13C13.45 14.9167 13.9417 15.2708 14.475 15.5625C15.0083 15.8542 15.5833 16 16.2 16C16.8 16 17.3792 15.8958 17.9375 15.6875C18.4958 15.4792 18.9917 15.1583 19.425 14.725C19.9917 14.1583 20.3958 13.4917 20.6375 12.725C20.8792 11.9583 21 11.175 21 10.375C21 9.69167 20.8583 9.12083 20.575 8.6625C20.2917 8.20417 19.8417 7.98333 19.225 8C19.175 8 18.9917 8.03333 18.675 8.1L12 10.6L5.325 8.1C5.24167 8.06667 5.15417 8.04167 5.0625 8.025C4.97083 8.00833 4.875 8 4.775 8C4.15833 8 3.70833 8.225 3.425 8.675C3.14167 9.125 3 9.69167 3 10.375C3 11.1917 3.12083 11.9833 3.3625 12.75C3.60417 13.5167 4.01667 14.1833 4.6 14.75C5.03333 15.1667 5.525 15.4792 6.075 15.6875C6.625 15.8958 7.2 16 7.8 16ZM9.025 14.1923C9.53917 14.1923 9.94233 14.0836 10.2345 13.8663C10.5268 13.6491 10.6794 13.3437 10.6923 12.95C10.6666 12.2103 10.1515 11.5017 9.147 10.824C8.14267 10.1465 7.08533 9.80775 5.975 9.80775C5.46083 9.80775 5.05767 9.91642 4.7655 10.1337C4.47317 10.3509 4.32058 10.6563 4.30775 11.05C4.33342 11.7897 4.8485 12.4983 5.853 13.176C6.85733 13.8535 7.91467 14.1923 9.025 14.1923ZM8.9905 13.3078C8.152 13.3078 7.32667 13.0642 6.5145 12.577C5.70233 12.0898 5.26158 11.5847 5.19225 11.0615C5.22442 10.9513 5.31067 10.8613 5.451 10.7913C5.59133 10.7214 5.7775 10.6865 6.0095 10.6865C6.848 10.6865 7.67333 10.9311 8.4855 11.4202C9.29767 11.9092 9.73842 12.4153 9.80775 12.9385C9.77558 13.0487 9.68933 13.1378 9.549 13.2058C9.40867 13.2738 9.2225 13.3078 8.9905 13.3078ZM14.975 14.2173C16.0853 14.2173 17.1427 13.8743 18.147 13.1885C19.1515 12.5025 19.6666 11.7897 19.6923 11.05C19.6794 10.6692 19.5278 10.3627 19.2375 10.1307C18.9472 9.89875 18.543 9.78275 18.025 9.78275C16.9275 9.80842 15.8733 10.161 14.8625 10.8405C13.8517 11.5198 13.3334 12.223 13.3077 12.95C13.3206 13.3308 13.4732 13.6372 13.7655 13.8692C14.0577 14.1012 14.4608 14.2173 14.975 14.2173ZM15.0095 13.327C14.7903 13.3142 14.6083 13.2738 14.4635 13.2058C14.3187 13.1378 14.2302 13.0487 14.198 12.9385C14.2673 12.4282 14.7081 11.9294 15.5203 11.4423C16.3324 10.9551 17.1577 10.6987 17.9962 10.673C18.2154 10.6858 18.3974 10.7263 18.5422 10.7943C18.6871 10.8623 18.7756 10.9513 18.8078 11.0615C18.7384 11.5847 18.2977 12.093 17.4855 12.5865C16.6733 13.0802 15.848 13.327 15.0095 13.327Z" fill="#1D1F3D"/>
</svg>
