<svg width="24" height="24" viewBox="0 0 24 24" fill="none" xmlns="http://www.w3.org/2000/svg">
<path d="M12.2365 14.6595C13.1597 14.6595 13.9558 14.3615 14.625 13.7655C15.2942 13.1693 15.6288 12.4404 15.6288 11.5787C15.6288 10.8467 15.3983 10.2221 14.9375 9.70475C14.4767 9.18742 13.9027 8.92875 13.2155 8.92875C12.6372 8.92875 12.1381 9.11792 11.7183 9.49625C11.2984 9.87442 11.0885 10.334 11.0885 10.875C11.0885 11.1147 11.1382 11.3461 11.2375 11.5693C11.3368 11.7922 11.4775 12.0032 11.6595 12.202L12.4308 11.5078C12.3166 11.4231 12.231 11.3301 12.174 11.2288C12.117 11.1276 12.0885 11.018 12.0885 10.9C12.0885 10.6653 12.1859 10.449 12.3808 10.251C12.5756 10.0528 12.8538 9.95375 13.2155 9.95375C13.6 9.95375 13.9327 10.1041 14.2135 10.4048C14.4942 10.7054 14.6345 11.1051 14.6345 11.6038C14.6345 12.1589 14.4124 12.6413 13.9682 13.051C13.5241 13.4607 12.9552 13.6655 12.2615 13.6655C11.4653 13.6655 10.7804 13.3488 10.2067 12.7155C9.63308 12.0822 9.34625 11.2879 9.34625 10.3327C9.34625 9.84942 9.44108 9.38367 9.63075 8.9355C9.82058 8.4875 10.0949 8.084 10.4538 7.725L9.72125 7.0115C9.27758 7.45133 8.93333 7.95517 8.6885 8.523C8.44367 9.091 8.32125 9.68592 8.32125 10.3078C8.32125 11.5051 8.69817 12.5297 9.452 13.3818C10.2058 14.2336 11.134 14.6595 12.2365 14.6595ZM7 21V17.2385C6.05 16.3718 5.3125 15.3977 4.7875 14.3162C4.2625 13.2349 4 12.1231 4 10.9807C4 8.76275 4.77883 6.87817 6.3365 5.327C7.89417 3.77567 9.782 3 12 3C13.8013 3 15.4292 3.54842 16.8837 4.64525C18.3382 5.74208 19.2815 7.15842 19.7135 8.89425L20.7443 13C20.8148 13.2525 20.7693 13.4823 20.6077 13.6895C20.4463 13.8965 20.2308 14 19.9615 14H18V17.3845C18 17.832 17.8427 18.2132 17.528 18.528C17.2132 18.8427 16.832 19 16.3845 19H14V21H13V18H16.3845C16.564 18 16.7115 17.9423 16.827 17.827C16.9423 17.7115 17 17.564 17 17.3845V13H19.7L18.75 9.125C18.3667 7.5955 17.5436 6.359 16.2807 5.4155C15.0179 4.47183 13.591 4 12 4C10.0667 4 8.41667 4.67817 7.05 6.0345C5.68333 7.391 5 9.03592 5 10.9693C5 11.9693 5.20417 12.916 5.6125 13.8095C6.02083 14.7032 6.6 15.5 7.35 16.2L8 16.8V21H7Z" fill="#1D1F3D"/>
</svg>
