<svg width="24" height="24" viewBox="0 0 24 24" fill="none" xmlns="http://www.w3.org/2000/svg">
<path d="M7.1155 16.5V15.5H14.25C13.6833 15.0885 13.2651 14.6199 12.9952 14.0942C12.7254 13.5686 12.568 13.0372 12.523 12.5H8.8845V11.5H12.523C12.5935 10.9372 12.7637 10.3929 13.0337 9.86725C13.3036 9.34158 13.709 8.88583 14.25 8.5H3.5V7.5H17C18.245 7.5 19.3062 7.9385 20.1838 8.8155C21.0612 9.69233 21.5 10.7529 21.5 11.9973C21.5 13.2414 21.0612 14.3029 20.1838 15.1817C19.3062 16.0606 18.245 16.5 17 16.5H7.1155ZM17 15.5C17.9615 15.5 18.7852 15.1571 19.4713 14.4713C20.1571 13.7853 20.5 12.9615 20.5 12C20.5 11.0385 20.1571 10.2148 19.4713 9.52875C18.7852 8.84292 17.9615 8.5 17 8.5C16.0385 8.5 15.2148 8.84292 14.5288 9.52875C13.8429 10.2148 13.5 11.0385 13.5 12C13.5 12.9615 13.8429 13.7853 14.5288 14.4713C15.2148 15.1571 16.0385 15.5 17 15.5ZM2.5 12.5V11.5H7.8845V12.5H2.5ZM3.5 16.5V15.5H6.1155V16.5H3.5Z" fill="#1D1F3D"/>
</svg>
