<svg width="24" height="24" viewBox="0 0 24 24" fill="none" xmlns="http://www.w3.org/2000/svg">
<path d="M7.6155 21C6.89233 21 6.27567 20.7448 5.7655 20.2345C5.25517 19.7243 5 19.1077 5 18.3845V6C5 5.1615 5.29042 4.45192 5.87125 3.87125C6.45192 3.29042 7.1615 3 8 3H19V16.7693C18.5577 16.7693 18.1778 16.9279 17.8605 17.2452C17.5432 17.5626 17.3845 17.9423 17.3845 18.3845C17.3845 18.8268 17.5432 19.2067 17.8605 19.524C18.1778 19.8413 18.5577 20 19 20V21H7.6155ZM6 16.3635C6.2205 16.1698 6.46533 16.0224 6.7345 15.9212C7.00383 15.8199 7.2975 15.7692 7.6155 15.7692H8.3845V4H8C7.45517 4 6.98558 4.19708 6.59125 4.59125C6.19708 4.98558 6 5.45517 6 6V16.3635ZM9.3845 15.7692H18V4H9.3845V15.7692ZM7.6155 20H16.9788C16.7891 19.7795 16.6427 19.5356 16.5395 19.2682C16.4362 19.0009 16.3845 18.7063 16.3845 18.3845C16.3845 18.0795 16.4352 17.7892 16.5365 17.5135C16.6378 17.2378 16.7853 16.9898 16.9788 16.7693H7.6155C7.1565 16.7693 6.7725 16.9279 6.4635 17.2452C6.1545 17.5626 6 17.9423 6 18.3845C6 18.8435 6.1545 19.2275 6.4635 19.5365C6.7725 19.8455 7.1565 20 7.6155 20Z" fill="#1D1F3D"/>
</svg>
