<svg width="24" height="24" viewBox="0 0 24 24" fill="none" xmlns="http://www.w3.org/2000/svg">
<path d="M8.30775 17.6923H9.19225V15.6923H11.1923V14.8077H9.19225V12.8077H8.30775V14.8077H6.30775V15.6923H8.30775V17.6923ZM13.3077 16.9423H17.6923V16.0577H13.3077V16.9423ZM13.3077 14.4423H17.6923V13.5577H13.3077V14.4423ZM14.1 10.4885L15.5 9.0885L16.9 10.4885L17.527 9.8615L16.127 8.45L17.527 7.05L16.9 6.423L15.5 7.823L14.1 6.423L13.473 7.05L14.873 8.45L13.473 9.8615L14.1 10.4885ZM6.55775 8.89225H10.9423V8.00775H6.55775V8.89225ZM5.6155 20C5.15517 20 4.77083 19.8458 4.4625 19.5375C4.15417 19.2292 4 18.8448 4 18.3845V5.6155C4 5.15517 4.15417 4.77083 4.4625 4.4625C4.77083 4.15417 5.15517 4 5.6155 4H18.3845C18.8448 4 19.2292 4.15417 19.5375 4.4625C19.8458 4.77083 20 5.15517 20 5.6155V18.3845C20 18.8448 19.8458 19.2292 19.5375 19.5375C19.2292 19.8458 18.8448 20 18.3845 20H5.6155ZM5.6155 19H18.3845C18.5385 19 18.6796 18.9359 18.8077 18.8077C18.9359 18.6796 19 18.5385 19 18.3845V5.6155C19 5.4615 18.9359 5.32042 18.8077 5.19225C18.6796 5.06408 18.5385 5 18.3845 5H5.6155C5.4615 5 5.32042 5.06408 5.19225 5.19225C5.06408 5.32042 5 5.4615 5 5.6155V18.3845C5 18.5385 5.06408 18.6796 5.19225 18.8077C5.32042 18.9359 5.4615 19 5.6155 19Z" fill="#1D1F3D"/>
</svg>
