<svg width="24" height="24" viewBox="0 0 24 24" fill="none" xmlns="http://www.w3.org/2000/svg">
<path d="M11 17.5C12.9333 17.5 14.5833 16.8177 15.95 15.453C17.3167 14.0882 18 12.4372 18 10.5C18 8.56667 17.3167 6.91667 15.95 5.55C14.5833 4.18333 12.9333 3.5 11 3.5C9.06283 3.5 7.41183 4.18333 6.047 5.55C4.68233 6.91667 4 8.56667 4 10.5C4 12.4372 4.68233 14.0882 6.047 15.453C7.41183 16.8177 9.06283 17.5 11 17.5ZM11 14.1923C9.69367 14.1923 8.535 13.8567 7.524 13.1855C6.51317 12.5143 5.78083 11.6192 5.327 10.5C5.78083 9.3975 6.51317 8.5065 7.524 7.827C8.535 7.1475 9.69367 6.80775 11 6.80775C12.2897 6.80775 13.44 7.1475 14.451 7.827C15.4618 8.5065 16.1961 9.3975 16.6538 10.5C16.1961 11.6192 15.4618 12.5143 14.451 13.1855C13.44 13.8567 12.2897 14.1923 11 14.1923ZM11 13.3077C11.9808 13.3077 12.8866 13.0581 13.7172 12.5588C14.5481 12.0592 15.2058 11.373 15.6905 10.5C15.2058 9.63083 14.5481 8.94558 13.7172 8.44425C12.8866 7.94292 11.9808 7.69225 11 7.69225C10.0153 7.69225 9.10442 7.94292 8.26725 8.44425C7.43008 8.94558 6.76917 9.63083 6.2845 10.5C6.76917 11.373 7.43008 12.0592 8.26725 12.5588C9.10442 13.0581 10.0153 13.3077 11 13.3077ZM11 12C11.4167 12 11.7708 11.8552 12.0625 11.5655C12.3542 11.2757 12.5 10.9205 12.5 10.5C12.5 10.0833 12.3542 9.72917 12.0625 9.4375C11.7708 9.14583 11.4167 9 11 9C10.5795 9 10.2243 9.14583 9.9345 9.4375C9.64483 9.72917 9.5 10.0833 9.5 10.5C9.5 10.9205 9.64483 11.2757 9.9345 11.5655C10.2243 11.8552 10.5795 12 11 12ZM11 18.5C9.891 18.5 8.85158 18.2913 7.88175 17.874C6.91192 17.4567 6.0645 16.8855 5.3395 16.1605C4.6145 15.4355 4.04333 14.5881 3.626 13.6183C3.20867 12.6484 3 11.609 3 10.5C3 9.39483 3.20867 8.35733 3.626 7.3875C4.04333 6.41767 4.6145 5.56925 5.3395 4.84225C6.0645 4.11542 6.91192 3.54333 7.88175 3.126C8.85158 2.70867 9.891 2.5 11 2.5C12.1052 2.5 13.1427 2.70867 14.1125 3.126C15.0823 3.54333 15.9307 4.11542 16.6578 4.84225C17.3846 5.56925 17.9567 6.41767 18.374 7.3875C18.7913 8.35733 19 9.39483 19 10.5C19 11.5153 18.8218 12.4724 18.4655 13.3713C18.109 14.2699 17.616 15.0788 16.9865 15.798L21 19.8115L20.3057 20.5L16.2923 16.4923C15.5731 17.1217 14.7642 17.6137 13.8655 17.9682C12.9667 18.3228 12.0115 18.5 11 18.5Z" fill="#1D1F3D"/>
</svg>
