<svg width="24" height="24" viewBox="0 0 24 24" fill="none" xmlns="http://www.w3.org/2000/svg">
<path d="M3 21V20C3.83077 20 4.64999 19.9564 5.45768 19.8692C6.26538 19.7821 7.05961 19.5859 7.84038 19.2808C7.99423 19.2167 8.06474 19.0981 8.05193 18.925C8.03909 18.7519 7.9237 18.6398 7.70575 18.5885C6.91345 18.359 6.26442 17.9362 5.75865 17.3202C5.25288 16.7042 5 15.9904 5 15.1789V13.6923H8.38463C8.56411 13.6923 8.71154 13.6346 8.82693 13.5192C8.94231 13.4039 9 13.2564 9 13.0769V10.8846H11.6827C11.9135 10.8846 12.0897 10.7917 12.2115 10.6058C12.3333 10.4199 12.3429 10.2244 12.2404 10.0192L9.44615 4.23846L10.3423 3.78076L13.1558 9.60001C13.4122 10.1385 13.3872 10.6539 13.0808 11.1462C12.7744 11.6385 12.3167 11.8846 11.7077 11.8846H10V13.1923C10 13.6141 9.85545 13.9696 9.56635 14.2587C9.27725 14.5478 8.9218 14.6923 8.5 14.6923H6V15.2173C6 15.8263 6.20481 16.3516 6.61443 16.7933C7.02404 17.235 7.52949 17.5308 8.13077 17.6808L8.43078 17.7558C8.95641 17.8968 9.23846 18.2622 9.27693 18.8519C9.31539 19.4417 9.05385 19.8519 8.4923 20.0827C7.62052 20.4532 6.7234 20.6987 5.80095 20.8192C4.87852 20.9398 3.94487 21 3 21ZM15.9346 18.5923L15.2212 17.8846C15.6353 17.4705 15.9519 17.0022 16.1712 16.4798C16.3904 15.9574 16.5 15.4103 16.5 14.8385C16.5 14.2667 16.3904 13.7196 16.1712 13.1971C15.9519 12.6747 15.6353 12.2064 15.2212 11.7923L15.9346 11.0789C16.4295 11.5737 16.8141 12.1433 17.0885 12.7875C17.3628 13.4317 17.5 14.1154 17.5 14.8385C17.5 15.5616 17.3628 16.2442 17.0885 16.8866C16.8141 17.5289 16.4295 18.0974 15.9346 18.5923ZM18.3366 21L17.6231 20.2866C18.3526 19.5571 18.9119 18.7279 19.301 17.7991C19.6901 16.8702 19.8846 15.8834 19.8846 14.8385C19.8846 13.7898 19.6901 12.8019 19.301 11.875C18.9119 10.9481 18.3526 10.1199 17.6231 9.39039L18.3366 8.67694C19.1596 9.50001 19.7901 10.4391 20.2279 11.4942C20.6657 12.5494 20.8846 13.6641 20.8846 14.8385C20.8846 16.009 20.6657 17.1228 20.2279 18.1798C19.7901 19.2369 19.1596 20.1769 18.3366 21Z" fill="#1D1F3D"/>
</svg>
