<svg width="24" height="24" viewBox="0 0 24 24" fill="none" xmlns="http://www.w3.org/2000/svg">
<path d="M8.125 7.0923L10.7327 3.62115C10.8917 3.40742 11.0804 3.25046 11.299 3.15027C11.5176 3.05009 11.7513 3 12 3C12.2487 3 12.4824 3.05009 12.701 3.15027C12.9196 3.25046 13.1083 3.40742 13.2673 3.62115L15.875 7.0923L19.8942 8.4596C20.2506 8.58012 20.525 8.78211 20.7173 9.06557C20.9096 9.34904 21.0058 9.66217 21.0058 10.005C21.0058 10.1632 20.9826 10.3203 20.9362 10.4764C20.8899 10.6324 20.8137 10.782 20.7077 10.925L18.0731 14.4981L18.1731 18.3288C18.1897 18.7986 18.0343 19.1946 17.7068 19.5168C17.3792 19.8389 16.9981 20 16.5635 20C16.5686 20 16.4173 19.9814 16.1096 19.9442L12 18.7327L7.89037 19.9442C7.80704 19.9776 7.72669 19.9952 7.64932 19.9971C7.57194 19.999 7.50101 20 7.43652 20C6.99294 20 6.60961 19.8389 6.28653 19.5168C5.96346 19.1946 5.81026 18.7986 5.82693 18.3288L5.92692 14.4731L3.29808 10.925C3.19209 10.7807 3.11592 10.6298 3.06955 10.4723C3.02318 10.3149 3 10.1575 3 10C3 9.66242 3.09886 9.34847 3.29658 9.05815C3.49431 8.76783 3.77045 8.56191 4.125 8.44037L8.125 7.0923ZM8.75385 7.95193L4.46152 9.39807C4.26923 9.46217 4.13782 9.59358 4.0673 9.7923C3.9968 9.99102 4.02565 10.1737 4.15385 10.3404L6.94615 14.1808L6.82693 18.3404C6.81411 18.5583 6.89103 18.7314 7.0577 18.8596C7.22437 18.9878 7.41026 19.0199 7.61538 18.9558L12 17.6962L16.3846 18.9808C16.5897 19.0449 16.7756 19.0128 16.9423 18.8846C17.109 18.7564 17.1859 18.5833 17.1731 18.3654L17.0539 14.1808L19.8462 10.3904C19.9744 10.2237 20.0032 10.041 19.9327 9.8423C19.8622 9.64358 19.7308 9.51217 19.5385 9.44807L15.2462 7.95193L12.4808 4.26922C12.3654 4.10256 12.2051 4.01922 12 4.01922C11.7949 4.01922 11.6346 4.10256 11.5192 4.26922L8.75385 7.95193Z" fill="#1D1F3D"/>
</svg>
