<svg width="81" height="60" viewBox="0 0 81 60" fill="none" xmlns="http://www.w3.org/2000/svg">
<g clip-path="url(#clip0_54618_4577)">
<path d="M0 47.0113H1.25705V48.3665H1.2757C2.0507 47.36 3.10535 46.8264 4.50888 46.8264C6.63415 46.8264 7.72342 48.1076 7.72342 50.2895V56.1697H6.35717V50.3291C6.35717 48.6623 5.61945 48.0019 4.21592 48.0019C2.60998 48.0019 1.35293 49.0453 1.35293 51.0609V56.1723H0V47.0113Z" fill="#5271C2"/>
<path d="M9.0127 53.5889C9.0127 51.8111 10.2697 50.7862 12.5601 50.7862H15.4418V50.036C15.4418 48.6069 14.5736 47.9465 13.0768 47.9465C11.7665 47.9465 10.9356 48.5144 10.6932 49.4495H9.36424C9.64122 47.9835 11.0448 46.8291 13.0768 46.8291C15.5137 46.8291 16.7707 48.1472 16.7707 49.999V54.6878C16.7707 55.0734 16.8639 55.6942 16.9918 56.1723H15.8093C15.6974 55.8052 15.6442 55.2557 15.6255 54.7617C14.9065 55.7682 13.8705 56.3546 12.3204 56.3546C10.307 56.3546 9.01536 55.2927 9.01536 53.5889H9.0127ZM15.4391 52.5085V51.8111H12.5761C10.9515 51.8111 10.3417 52.3975 10.3417 53.5889C10.3417 54.7802 11.1912 55.2927 12.5015 55.2927C14.238 55.2927 15.4391 54.0829 15.4391 52.5085Z" fill="#5271C2"/>
<path d="M17.4229 47.0115H18.901L21.8012 54.6509H21.8199L24.7388 47.0115H26.2169L22.4857 56.1724H21.1381L17.4255 47.0115H17.4229Z" fill="#5271C2"/>
<path d="M26.5234 51.5919C26.5234 48.6069 28.2412 46.8291 30.9018 46.8291C33.8207 46.8291 35.1311 48.8816 35.1311 51.1903V52.1968H27.927C27.9456 54.0829 29.2027 55.1818 30.9018 55.1818C32.601 55.1818 33.2668 54.5214 33.6183 53.4779H35.0591C34.6517 55.0708 33.1389 56.3546 30.9045 56.3546C28.2439 56.3546 26.5261 54.5768 26.5261 51.5919H26.5234ZM33.7275 51.0794C33.7089 49.1193 32.822 48.002 30.9018 48.002C28.9816 48.002 27.9456 49.1933 27.927 51.0794H33.7275Z" fill="#5271C2"/>
<path d="M36.6466 57.3268H38.0688C38.4204 58.3702 39.214 58.8668 40.5989 58.8668C42.4099 58.8668 43.2222 57.7864 43.2222 55.8263V54.9652H43.2036C42.4286 55.7709 41.5417 56.175 40.1941 56.175C37.6826 56.175 36.1113 54.3788 36.1113 51.5206C36.1113 48.6624 37.6454 46.8318 40.1941 46.8318C41.7281 46.8318 42.631 47.3258 43.3341 48.2424H43.3713V47.0141H44.5911V55.8607C44.5911 58.2249 43.0225 60 40.6016 60C38.4763 60 37.0195 58.9751 36.6493 57.3241L36.6466 57.3268ZM43.406 51.5021C43.406 49.1194 42.2794 48.002 40.4498 48.002C38.6201 48.002 37.4936 49.1749 37.4936 51.5206C37.4936 53.8663 38.6015 55.0022 40.4498 55.0022C42.2981 55.0022 43.406 53.9957 43.406 51.5021Z" fill="#5271C2"/>
<path d="M45.9619 53.5889C45.9619 51.8111 47.219 50.7862 49.5094 50.7862H52.391V50.036C52.391 48.6069 51.5228 47.9465 50.026 47.9465C48.7157 47.9465 47.8848 48.5144 47.6424 49.4495H46.3135C46.5904 47.9835 47.994 46.8291 50.026 46.8291C52.4629 46.8291 53.72 48.1472 53.72 49.999V54.6878C53.72 55.0734 53.8132 55.6942 53.941 56.1723H52.7585C52.6467 55.8052 52.5934 55.2557 52.5748 54.7617C51.8557 55.7682 50.8197 56.3546 49.2697 56.3546C47.2563 56.3546 45.9646 55.2927 45.9646 53.5889H45.9619ZM52.3883 52.5085V51.8111H49.5253C47.9008 51.8111 47.2909 52.3975 47.2909 53.5889C47.2909 54.7802 48.1404 55.2927 49.4508 55.2927C51.1872 55.2927 52.3883 54.0829 52.3883 52.5085Z" fill="#5271C2"/>
<path d="M55.4297 47.0113H56.6867V48.3665H56.7054C57.4804 47.36 58.535 46.8264 59.9386 46.8264C62.0638 46.8264 63.1531 48.1076 63.1531 50.2895V56.1697H61.7869V50.3291C61.7869 48.6623 61.0491 48.0019 59.6456 48.0019C58.0397 48.0019 56.7826 49.0453 56.7826 51.0609V56.1723H55.435V47.0113H55.4297Z" fill="#5271C2"/>
<path d="M65.4595 53.9191V48.1473H63.9814V47.0114H65.4595V44.3487L66.8072 44V47.0114H69.2094V48.1473H66.8072V53.9191C66.8072 54.8727 67.1401 55.1844 68.0456 55.1844C68.4158 55.1844 68.8765 55.092 69.2094 54.9467V56.101C68.8578 56.2305 68.3225 56.3573 67.6754 56.3573C66.0881 56.3573 65.4595 55.3508 65.4595 53.9217V53.9191Z" fill="#5271C2"/>
<path d="M69.6172 51.5919C69.6172 48.6069 71.335 46.8291 73.9956 46.8291C76.9145 46.8291 78.2248 48.8816 78.2248 51.1903V52.1968H71.0207C71.0394 54.0829 72.2964 55.1818 73.9956 55.1818C75.6947 55.1818 76.3605 54.5214 76.7121 53.4779H78.1529C77.7454 55.0708 76.2327 56.3546 73.9982 56.3546C71.3376 56.3546 69.6199 54.5768 69.6199 51.5919H69.6172ZM76.8213 51.0794C76.8026 49.1193 75.9158 48.002 73.9956 48.002C72.0754 48.002 71.0394 49.1933 71.0207 51.0794H76.8213Z" fill="#5271C2"/>
<path d="M78.2227 45.5003C78.2227 44.721 78.8246 44.124 79.6102 44.124C80.3959 44.124 81.0004 44.721 81.0004 45.5003C81.0004 46.2795 80.3959 46.8765 79.6102 46.8765C78.8246 46.8765 78.2227 46.2795 78.2227 45.5003ZM80.7181 45.5003C80.7181 44.8478 80.2547 44.3723 79.6075 44.3723C78.9604 44.3723 78.5023 44.8452 78.5023 45.5003C78.5023 46.1554 78.9604 46.6282 79.6075 46.6282C80.2547 46.6282 80.7181 46.1554 80.7181 45.5003ZM79.0376 44.6629H79.6342C80.0683 44.6629 80.2893 44.8452 80.2893 45.1754C80.2893 45.4237 80.1509 45.569 79.8659 45.6297C80.0736 45.7354 80.1535 45.9044 80.1935 46.1026L80.2281 46.3192H79.9538L79.9218 46.1237C79.8792 45.8569 79.7567 45.6958 79.4824 45.6958H79.2933V46.3192H79.035V44.6629H79.0376ZM79.6608 45.4739C79.9458 45.4739 80.0257 45.3524 80.0257 45.1754C80.0257 44.964 79.9245 44.8927 79.6741 44.8927H79.2933V45.4739H79.6582H79.6608Z" fill="#5271C2"/>
</g>
<g clip-path="url(#clip1_54618_4577)">
<path d="M44.1225 13.3723L23.2723 0.439209C23.2113 0.562312 23.6638 0.902657 23.6638 1.05231C23.6638 1.19714 23.699 1.33231 23.7576 1.453L23.8256 1.56886L35.878 22.0885L56.6743 34.942L44.1225 13.3723Z" fill="#E3E3E8"/>
<path d="M39.9758 17.3818H39.96V17.3909L39.9758 17.3818Z" fill="#003DA6"/>
<path d="M55.5132 2.31958L44.1807 22.0306L55.5132 2.31958Z" fill="#3BBFAD"/>
<path d="M55.4971 0.86172L55.6096 0.789307C55.5698 0.811031 55.5322 0.835169 55.4971 0.86172Z" fill="#6A81C9"/>
<path d="M35.8265 13.4329L24.4893 33.1487L23.6123 34.6742C23.7319 34.737 23.8655 34.7732 24.0086 34.7732C24.1516 34.7732 24.2923 34.7322 24.4119 34.6646L24.4869 34.6163L44.1811 22.0308L35.8265 13.4329Z" fill="#2C6FC9"/>
<path d="M23.3259 0.477937C23.204 0.354834 23 0.444144 23 0.620351L23.1477 33.8848C23.1477 34.2276 23.3377 34.5269 23.612 34.6741L24.489 33.1486L35.8262 13.4328L23.3259 0.477937Z" fill="#4689E6"/>
<path d="M55.994 0.69274C55.8557 0.69274 55.7244 0.728947 55.6095 0.791706L55.4969 0.86412L35.8262 13.4327L44.1808 22.0331L55.5133 2.31964L56.3903 0.791706C56.2707 0.726534 56.1371 0.690327 55.994 0.69274V0.69274Z" fill="#22C2C9"/>
<path d="M56.3902 0.794189L55.5132 2.32212L44.1807 22.0332L56.6739 34.9445C56.7958 35.0701 56.9998 34.9807 56.9998 34.8021L56.8521 1.59315V1.57384C56.8474 1.23591 56.6598 0.941431 56.3902 0.796603V0.794189Z" fill="#73D1D6"/>
<path d="M55.5137 2.31968L56.3906 0.794162V0.791748L55.5137 2.31968Z" fill="#6A81C9"/>
</g>
<defs>
<clipPath id="clip0_54618_4577">
<rect width="81" height="16" fill="white" transform="translate(0 44)"/>
</clipPath>
<clipPath id="clip1_54618_4577">
<rect width="34" height="35" fill="white" transform="translate(23)"/>
</clipPath>
</defs>
</svg>
